Coordinates
version=1
nRows=14
nColumns=40
inDegrees=yes

Units are S.I. units (second, meters, Newtons, ...)
Angles are in degrees.

endheader
time	pelvis_tilt	pelvis_list	pelvis_rotation	pelvis_tx	pelvis_ty	pelvis_tz	hip_flexion_r	hip_adduction_r	hip_rotation_r	knee_angle_r	knee_angle_r_beta	ankle_angle_r	subtalar_angle_r	mtp_angle_r	hip_flexion_l	hip_adduction_l	hip_rotation_l	knee_angle_l	knee_angle_l_beta	ankle_angle_l	subtalar_angle_l	mtp_angle_l	lumbar_extension	lumbar_bending	lumbar_rotation	arm_flex_r	arm_add_r	arm_rot_r	elbow_flex_r	pro_sup_r	wrist_flex_r	wrist_dev_r	arm_flex_l	arm_add_l	arm_rot_l	elbow_flex_l	pro_sup_l	wrist_flex_l	wrist_dev_l
     21.80750000	     -4.13653243	     -5.15448204	      5.38237046	      1.09827121	      0.91995212	      0.42518371	      6.27684685	     -2.25951028	    -11.91956930	     33.21439720	     33.21439720	     14.17502147	     -7.27985859	    -10.32437202	     26.57493194	     -5.37026148	      0.27047668	     29.53039831	     29.53039831	     10.34749008	    -14.60071223	      4.57628101	     -9.21419757	      2.99195671	      3.68089183	     15.98489019	    -14.32656485	      5.85760253	     77.66573139	     45.31887180	      0.00000000	      0.00000000	      2.12308400	     -9.53751457	     -2.43581908	     31.56105332	     45.33769830	      0.00000000	      0.00000000
     21.82142857	     -4.05907593	     -5.22463614	      4.98707023	      1.09884804	      0.92051233	      0.42232192	      7.82253966	     -2.73866293	    -11.21556386	     36.57164557	     36.57164557	     11.38370196	     -9.61451545	    -14.51199244	     25.99056689	     -5.41329124	      0.00593488	     29.58904259	     29.58904259	     10.92506017	    -14.67028968	      4.82869638	     -9.09837085	      3.05754393	      2.98014843	     16.20430700	    -13.43087689	      6.87157327	     70.81470361	     45.49310560	      0.00000000	      0.00000000	      2.12056220	    -10.08525370	     -1.99470828	     33.27720086	     45.33599584	      0.00000000	      0.00000000
     21.83535714	     -3.89656976	     -5.20135846	      4.59195864	      1.09932088	      0.92106266	      0.41954166	      9.47896442	     -3.30013777	    -10.50878476	     40.31566254	     40.31566254	      9.47997537	    -11.29961486	    -15.47576534	     25.31047446	     -5.38355584	     -0.36866721	     29.65536996	     29.65536996	     11.37841481	    -14.71361085	      4.71137652	     -9.20788754	      3.04366470	      2.92204700	     15.31257565	    -13.03004053	      7.07818290	     66.37869785	     45.61357557	      0.00000000	      0.00000000	      2.86059497	    -10.48591191	     -1.66456533	     34.30461101	     45.35084050	      0.00000000	      0.00000000
     21.84928571	     -3.72272722	     -5.19251909	      4.19608869	      1.09964683	      0.92148530	      0.41693611	     11.23566585	     -3.82008399	     -9.82904725	     44.14558324	     44.14558324	      7.76337363	    -12.59737275	    -15.41905199	     24.63341594	     -5.38948475	     -0.78251236	     29.72026349	     29.72026349	     11.79134920	    -14.71336812	      4.54421708	     -9.33027402	      3.04386633	      2.79539703	     14.52524580	    -12.66184045	      7.08917617	     61.77641008	     45.74318074	      0.00000000	      0.00000000	      3.61288999	    -10.98139417	     -1.18267406	     35.39558632	     45.35069658	      0.00000000	      0.00000000
     21.86321429	     -3.53236813	     -5.13039309	      3.82771344	      1.09983775	      0.92181138	      0.41434468	     13.01178304	     -4.39310085	     -9.24889563	     47.89028428	     47.89028428	      6.06504032	    -13.57352041	    -15.06098155	     23.94401878	     -5.32714662	     -1.19147337	     29.78139175	     29.78139175	     12.19961084	    -14.67186043	      4.35813557	     -9.55051552	      3.01483827	      2.97615241	     12.89951878	    -12.93961045	      7.22048994	     59.60446834	     45.80031419	      0.00000000	      0.00000000	      4.71851807	    -11.27739844	     -1.15372145	     36.14440643	     45.37315774	      0.00000000	      0.00000000
     21.87714286	     -3.39378539	     -5.13640883	      3.46440905	      1.09984214	      0.92210887	      0.41194190	     14.84114028	     -4.77211852	     -8.62230768	     51.37576984	     51.37576984	      4.48093737	    -14.55969317	    -13.99559516	     23.32308431	     -5.35472822	     -1.66932214	     29.81666345	     29.81666345	     12.59222709	    -14.55818344	      4.15634396	     -9.66597477	      3.07303338	      3.20140783	     11.56543351	    -13.12036158	      7.10520625	     56.27444991	     45.90751925	      0.00000000	      0.00000000	      5.84185138	    -11.55372508	     -0.90787667	     36.97335309	     45.37268625	      0.00000000	      0.00000000
     21.89107143	     -3.11709719	     -5.18841481	      3.19399126	      1.09982535	      0.92261681	      0.40965380	     16.51231261	     -5.05079139	     -8.13215296	     54.72585354	     54.72585354	      4.20428833	    -14.45281451	     -9.75571270	     22.59126583	     -5.43145318	     -2.06611743	     29.88520701	     29.88520701	     13.03490254	    -14.32065367	      3.87268879	     -9.84656422	      3.16636060	      2.31551697	     12.18010263	    -11.92714691	      5.79697148	     48.73883225	     46.19328945	      0.00000000	      0.00000000	      6.33019618	    -12.52341497	      0.72289694	     38.03891163	     45.24871464	      0.00000000	      0.00000000
     21.90500000	     -2.93890117	     -5.12545939	      2.93053278	      1.09963572	      0.92305652	      0.40728797	     18.13347757	     -5.47757948	     -7.77800877	     57.41576854	     57.41576854	      2.89500968	    -14.90865962	     -9.03419791	     21.88907252	     -5.33499964	     -2.45286225	     29.81288427	     29.81288427	     13.42942760	    -14.21462877	      3.71642911	    -10.06241809	      3.15701672	      2.19473609	     10.57466415	    -12.35636901	      5.76091323	     47.20456092	     46.23461218	      0.00000000	      0.00000000	      7.40022424	    -12.92628124	      0.75328411	     38.73059873	     45.27143083	      0.00000000	      0.00000000
     21.91892857	     -2.73453113	     -5.23322574	      2.68698608	      1.09934899	      0.92375318	      0.40518573	     19.73241695	     -5.61405838	     -7.46721781	     59.86609243	     59.86609243	      3.25099903	    -14.34706621	     -4.33209629	     21.17060515	     -5.46392781	     -2.85296320	     29.70799532	     29.70799532	     13.79049606	    -13.84974178	      3.44182654	    -10.23096622	      3.34804803	      1.86274170	     10.39772627	    -11.95384681	      4.17394849	     41.58847212	     46.46303721	      0.00000000	      0.00000000	      8.33843885	    -13.71525447	      2.55274451	     39.49500516	     45.16082238	      0.00000000	      0.00000000
     21.93285714	     -2.59991161	     -5.21880440	      2.41930414	      1.09889175	      0.92446039	      0.40305059	     21.19349881	     -5.87756612	     -7.21539413	     61.51369532	     61.51369532	      2.46777188	    -14.44594157	     -3.96391735	     20.45847793	     -5.40465384	     -3.20378108	     29.46708504	     29.46708504	     14.09804896	    -13.72176333	      3.36254145	    -10.42866472	      3.40693037	      1.64385435	      8.86359635	    -12.53130477	      4.01594998	     40.38722522	     46.49908500	      0.00000000	      0.00000000	      9.40721749	    -14.07465467	      2.55455940	     40.09843606	     45.18759055	      0.00000000	      0.00000000
     21.94678571	     -2.46226696	     -5.28808086	      2.12233255	      1.09834312	      0.92538973	      0.40111747	     22.53671726	     -5.98681525	     -7.02652532	     62.59345796	     62.59345796	      2.10221236	    -14.26861940	     -3.27114948	     19.69169130	     -5.46385583	     -3.61313208	     29.12259029	     29.12259029	     14.39202734	    -13.45424978	      3.24824369	    -10.63716226	      3.55181572	      1.75695825	      7.46113369	    -13.16599072	      3.61553357	     38.41934042	     46.57466483	      0.00000000	      0.00000000	     10.64414254	    -14.29971394	      2.83398702	     40.73395956	     45.19340962	      0.00000000	      0.00000000
     21.96071429	     -2.26922912	     -5.50763485	      1.86922991	      1.09770789	      0.92649743	      0.39930311	     23.63886505	     -5.89962998	     -7.00631656	     62.98509251	     62.98509251	      1.74785598	    -14.09452916	     -3.21543183	     18.96131056	     -5.64349227	     -3.81303181	     28.91123479	     28.91123479	     14.65038826	    -13.50758314	      3.23159150	    -10.88869350	      3.93602495	      0.86017156	      6.47267552	    -13.60742018	      3.50744374	     37.87783183	     46.59368590	      0.00000000	      0.00000000	     11.34409185	    -14.68556904	      2.79292704	     40.93823340	     45.20894747	      0.00000000	      0.00000000
     21.97464286	     -2.30664258	     -5.41355703	      1.50568147	      1.09700579	      0.92768919	      0.39768294	     24.90441747	     -6.11422725	     -6.89771963	     62.85942259	     62.85942259	      1.77532049	    -13.73656540	     -2.78240942	     18.08783364	     -5.52948777	     -4.41434883	     28.02404713	     28.02404713	     14.84964549	    -12.94689890	      3.16961771	    -10.92517529	      3.79970038	      1.30152228	      4.95257784	    -14.33396684	      3.05116944	     35.64379285	     46.68758648	      0.00000000	      0.00000000	     12.70791597	    -14.96021344	      3.09739030	     41.61401662	     45.21113793	      0.00000000	      0.00000000
     21.98857143	     -2.16646691	     -5.53533429	      1.12607951	      1.09622806	      0.92906686	      0.39633488	     25.81183996	     -6.02125026	     -6.88721790	     62.10559066	     62.10559066	      2.00207329	    -13.25011689	     -2.20861834	     17.19988442	     -5.67196661	     -4.93297321	     27.44365433	     27.44365433	     14.97735418	    -12.62534567	      2.92880214	    -11.17938141	      3.97144145	      1.38163076	      4.17475591	    -14.73763004	      1.84920268	     32.93999769	     46.84276997	      0.00000000	      0.00000000	     13.99607507	    -15.32981875	      4.06046528	     41.89402797	     45.15826405	      0.00000000	      0.00000000
